<svg width="403" height="190" viewBox="0 0 403 190" fill="none" xmlns="http://www.w3.org/2000/svg">
<path d="M115.919 135.62H115.912C116.206 163.924 88.5965 189.649 57.3916 189.533C26.2938 189.41 -1.24148 161.71 1.14355 132.521H31.7959C35.425 149.479 44.6809 158.107 58.9482 158.018C71.9258 157.942 82.5181 150.019 83.9287 135.499V127.542C97.3219 121.975 108.533 112.211 115.919 99.8838V135.62ZM100.13 7.21973C108.944 7.2199 116.102 14.3778 116.102 23.1924V65.2705C116.102 97.3316 90.1119 123.321 58.0508 123.321C25.9898 123.321 0 97.3315 0 65.2705C7.92741e-05 33.2095 25.9898 7.2198 58.0508 7.21973C68.4268 7.21973 78.1666 9.9428 86.5957 14.7119C89.4225 10.2131 94.4297 7.21973 100.13 7.21973ZM182.344 8.91309C215.84 8.91309 238.815 32.5318 238.815 64.7412V73.7588H158.724C161.3 86.2116 170.747 91.7969 182.342 91.7969C191.574 91.7969 198.447 89.866 202.525 84.0664H235.808C228.938 105.968 208.752 120.569 182.342 120.569C148.845 120.569 125.227 96.9484 125.227 64.7412H125.229C125.229 32.5341 148.847 8.91319 182.344 8.91309ZM301.642 8.91309C332.99 8.91311 354.034 26.9512 354.034 62.8076V117.777H321.827V62.8076C321.827 46.0595 313.667 38.9727 301.644 38.9727C289.62 38.9728 281.46 46.0596 281.46 62.8076V117.777H249.253V62.8076H249.251C249.251 27.1657 270.293 8.91309 301.642 8.91309ZM400.584 117.768H368.377V43.2842C373.213 45.724 378.696 47.0908 384.488 47.0908C390.281 47.0908 395.734 45.724 400.584 43.2842V117.768ZM58.0508 40.6641C44.4614 40.6641 33.4444 51.6811 33.4443 65.2705C33.4443 78.86 44.4614 89.8769 58.0508 89.877C71.6403 89.877 82.6572 78.86 82.6572 65.2705C82.6571 51.6811 71.6402 40.6641 58.0508 40.6641ZM182.347 37.6875C171.181 37.6875 162.592 42.6271 159.371 53.3613H205.75C202.1 42.4104 193.512 37.6876 182.347 37.6875ZM384.373 0C390.812 3.35573e-05 396.486 3.29158 399.779 8.29004C400.03 8.65749 400.265 9.02511 400.471 9.40625L400.745 9.91016C402.087 12.4655 402.849 15.3734 402.849 18.4736C402.849 21.7807 401.982 24.8691 400.469 27.5439C397.31 33.1587 391.282 36.9521 384.373 36.9521C377.464 36.9521 371.423 33.161 368.262 27.5303C366.762 24.8554 365.895 21.754 365.895 18.4766C365.895 15.199 366.748 12.1105 368.262 9.43555C368.481 9.03851 368.702 8.65742 368.967 8.29004C372.26 3.29385 377.934 0 384.373 0Z" fill="white"/>
</svg>
