<svg xmlns="http://www.w3.org/2000/svg" viewBox="0 0 500 150" width="100%" height="100%">
    <g transform="translate(40, 35)">
        <path d="M40,0 C62.09,0 80,17.91 80,40 C80,62.09 62.09,80 40,80 C17.91,80 0,62.09 0,40 C0,17.91 17.91,0 40,0 Z M40,20 C28.95,20 20,28.95 20,40 C20,51.05 28.95,60 40,60 C51.05,60 60,51.05 60,40 C60,28.95 51.05,20 40,20 Z" fill="#ffffff"/>
        
        <path d="M55,10 L80,10 L80,35 L65,35 L65,25 L55,25 Z" fill="#ffffff"/>
        <path d="M40,-5 A45,45 0 0,1 85,40" fill="none" stroke="#ffffff" stroke-width="8" stroke-linecap="round"/>
    </g>

    <text x="140" y="95" font-family="'Arial Black', 'Montserrat', 'Inter', sans-serif" font-size="64" font-weight="900" fill="#ffffff" letter-spacing="-1.5">
        Omnifi
    </text>
</svg>
